<svg width="25" height="38" viewBox="0 0 25 38" fill="none" xmlns="http://www.w3.org/2000/svg">
<path d="M22.7246 10.0724V7.41871H23.1163C24.0799 7.42134 24.8662 6.64849 24.8809 5.68521V1.93609C24.8665 0.972219 24.0805 0.198781 23.1163 0.199953H2.08262C1.11846 0.198781 0.332422 0.972219 0.318359 1.93609V5.68521C0.333008 6.64849 1.11904 7.42134 2.08262 7.41871H2.47461V10.0724C2.47314 11.3293 3.0459 12.5178 4.02969 13.2998L11.0826 18.9385L4.16826 24.3019C3.15605 25.0818 2.56426 26.2891 2.56836 27.5674V30.4812H2.08262C1.11904 30.4786 0.333008 31.2514 0.318359 32.2147V35.9638C0.332422 36.9277 1.11846 37.7012 2.08262 37.7H23.1163C24.0805 37.7012 24.8665 36.9277 24.8809 35.9638V32.2147C24.8662 31.2514 24.0799 30.4786 23.1163 30.4812H22.8184V27.5858C22.8125 26.295 22.2078 25.08 21.1815 24.2969L14.1266 18.9312L21.1707 13.2995C22.1542 12.5175 22.7267 11.3287 22.7246 10.0724ZM2.19336 2.07495H23.0059V5.54371H2.19336V2.07495ZM23.0059 35.825H2.19336V32.3562H3.34414C3.39805 32.3562 3.45254 32.3715 3.50908 32.3715C3.56533 32.3715 3.62041 32.3562 3.67432 32.3562H21.7036C21.7572 32.3562 21.8123 32.3715 21.8686 32.3715C21.9251 32.3715 21.9799 32.3562 22.0335 32.3562H23.0059V35.825ZM20.9434 27.5858V30.4812H4.44336V27.5674C4.44189 26.8689 4.76504 26.2094 5.31875 25.7835L12.6043 20.1321L20.046 25.789C20.6073 26.2168 20.939 26.8803 20.9434 27.5858ZM19.9979 11.8352L12.6014 17.7497L5.20215 11.8352C4.66367 11.4087 4.34961 10.7594 4.34961 10.0724V7.41871H20.8496V10.0724C20.8496 10.7594 20.5361 11.4084 19.9979 11.8352Z" fill="#E4E4E4"/>
</svg>
