<svg width="14" height="20" viewBox="0 0 14 20" fill="none" xmlns="http://www.w3.org/2000/svg">
<path d="M6.99969 0C3.32375 0 0.333008 2.99074 0.333008 6.66668C0.333008 7.7702 0.608906 8.86434 1.1334 9.8348L6.63512 19.7852C6.70836 19.9178 6.84793 20 6.99969 20C7.15144 20 7.29102 19.9178 7.36426 19.7852L12.868 9.83152C13.3905 8.86434 13.6664 7.77016 13.6664 6.66664C13.6664 2.99074 10.6756 0 6.99969 0ZM6.99969 10C5.16172 10 3.66637 8.50465 3.66637 6.66668C3.66637 4.82871 5.16172 3.33336 6.99969 3.33336C8.83766 3.33336 10.333 4.82871 10.333 6.66668C10.333 8.50465 8.83766 10 6.99969 10Z" fill="white"/>
</svg>
