<svg width="40" height="40" viewBox="0 0 40 40" fill="none" xmlns="http://www.w3.org/2000/svg">
<g clip-path="url(#clip0)">
<path d="M38.2081 35.5413C37.9029 35.2363 37.4084 35.2363 37.1032 35.5413C36.7981 35.8464 36.7981 36.3411 37.1032 36.6462L37.332 36.8751H3.12433V2.66742L3.35315 2.89625C3.50573 3.04875 3.70565 3.125 3.90558 3.125C4.1055 3.125 4.30542 3.04867 4.458 2.89617C4.76308 2.59109 4.76308 2.09641 4.458 1.79125L2.8955 0.22875C2.59034 -0.07625 2.09581 -0.07625 1.79058 0.22875L0.228076 1.79125C-0.0770019 2.09633 -0.0770019 2.59102 0.228076 2.89617C0.533232 3.20117 1.02776 3.20117 1.333 2.89617L1.56183 2.66742V8.75H0.780576C0.34917 8.75 -0.000673828 9.09984 -0.000673828 9.53125C-0.000673828 9.96266 0.34917 10.3125 0.780576 10.3125H1.56183V13.4375H0.780576C0.34917 13.4375 -0.000673828 13.7873 -0.000673828 14.2188C-0.000673828 14.6502 0.34917 15 0.780576 15H1.56183V18.125H0.780576C0.34917 18.125 -0.000673828 18.4748 -0.000673828 18.9062C-0.000673828 19.3377 0.34917 19.6875 0.780576 19.6875H1.56183V22.8125H0.780576C0.34917 22.8125 -0.000673828 23.1623 -0.000673828 23.5938C-0.000673828 24.0252 0.34917 24.375 0.780576 24.375H1.56183V27.5H0.780576C0.34917 27.5 -0.000673828 27.8498 -0.000673828 28.2812C-0.000673828 28.7127 0.34917 29.0625 0.780576 29.0625H1.56183V32.1875H0.780576C0.34917 32.1875 -0.000673828 32.5373 -0.000673828 32.9688C-0.000673828 33.4002 0.34917 33.75 0.780576 33.75H1.56183V36.875H0.780576C0.34917 36.875 -0.000673828 37.2248 -0.000673828 37.6562C-0.000673828 38.0877 0.34917 38.4375 0.780576 38.4375H1.56183V39.2188C1.56183 39.6502 1.91167 40 2.34308 40C2.77448 40 3.12433 39.6502 3.12433 39.2188V38.4375H6.24933V39.2188C6.24933 39.6502 6.59917 40 7.03058 40C7.46198 40 7.81183 39.6502 7.81183 39.2188V38.4375H10.9368V39.2188C10.9368 39.6502 11.2867 40 11.7181 40C12.1495 40 12.4993 39.6502 12.4993 39.2188V38.4375H15.6243V39.2188C15.6243 39.6502 15.9742 40 16.4056 40C16.837 40 17.1868 39.6502 17.1868 39.2188V38.4375H20.3118V39.2188C20.3118 39.6502 20.6617 40 21.0931 40C21.5245 40 21.8743 39.6502 21.8743 39.2188V38.4375H24.9993V39.2188C24.9993 39.6502 25.3492 40 25.7806 40C26.212 40 26.5618 39.6502 26.5618 39.2188V38.4375H29.6868V39.2188C29.6868 39.6502 30.0367 40 30.4681 40C30.8995 40 31.2493 39.6502 31.2493 39.2188V38.4375H37.3319L37.1031 38.6663C36.798 38.9714 36.798 39.4661 37.1031 39.7712C37.4083 40.0763 37.9028 40.0762 38.208 39.7712L39.7705 38.2087C40.0756 37.9037 40.0756 37.409 39.7705 37.1038L38.2081 35.5413Z" fill="black"/>
<path d="M19.5312 13.4375C19.9627 13.4375 20.3125 13.0877 20.3125 12.6562C20.3125 12.2248 19.9627 11.875 19.5312 11.875C19.0998 11.875 18.75 12.2248 18.75 12.6562C18.75 13.0877 19.0998 13.4375 19.5312 13.4375Z" fill="black"/>
<path d="M24.2187 0H19.5312C19.0998 0 18.75 0.349844 18.75 0.78125V9.14062C18.75 9.57203 19.0998 9.92188 19.5312 9.92188C19.9627 9.92188 20.3125 9.57203 20.3125 9.14062V1.5625H23.4375V33.75H20.3125V16.1719C20.3125 15.7405 19.9627 15.3906 19.5312 15.3906C19.0998 15.3906 18.75 15.7405 18.75 16.1719V25.9375H15.625V11.0938C15.625 10.6623 15.2752 10.3125 14.8437 10.3125H10.1562C9.72484 10.3125 9.375 10.6623 9.375 11.0938V16.5625H5.46875C5.03734 16.5625 4.6875 16.9123 4.6875 17.3438V34.5312C4.6875 34.9627 5.03734 35.3125 5.46875 35.3125H33.5937C34.0252 35.3125 34.375 34.9627 34.375 34.5312V26.7188C34.375 26.2873 34.0252 25.9375 33.5937 25.9375H29.6875V17.3438C29.6875 16.9123 29.3377 16.5625 28.9062 16.5625H25V0.78125C25 0.349844 24.6502 0 24.2187 0ZM9.375 33.75H6.25V18.125H9.375V33.75ZM14.0625 33.75H10.9375V11.875H14.0625V33.75ZM18.75 33.75H15.625V27.5H18.75V33.75ZM29.6875 27.5H32.8125V33.75H29.6875V27.5ZM28.125 18.125V33.75H25V18.125H28.125Z" fill="black"/>
</g>
<defs>
<clipPath id="clip0">
<rect width="40" height="40" fill="white"/>
</clipPath>
</defs>
</svg>
