<svg width="40" height="40" viewBox="0 0 40 40" fill="none" xmlns="http://www.w3.org/2000/svg">
<g clip-path="url(#clip0)">
<path d="M16.876 27.0312C17.3074 27.0312 17.6572 26.6815 17.6572 26.25C17.6572 25.8185 17.3074 25.4688 16.876 25.4688C16.4445 25.4688 16.0947 25.8185 16.0947 26.25C16.0947 26.6815 16.4445 27.0312 16.876 27.0312Z" fill="black"/>
<path d="M3.12598 10.625V13.75C3.12598 14.1815 3.47574 14.5312 3.90723 14.5312H26.4854C26.9168 14.5312 27.2666 14.1815 27.2666 13.75V10.625C27.2666 10.1935 26.9168 9.84375 26.4854 9.84375H3.90723C3.47574 9.84375 3.12598 10.1935 3.12598 10.625ZM11.4072 11.4062H25.7041V12.9688H11.4072V11.4062ZM4.68848 11.4062H9.84473V12.9688H4.68848V11.4062Z" fill="black"/>
<path d="M3.90723 17.6562H26.4854C26.9168 17.6562 27.2666 17.3065 27.2666 16.875C27.2666 16.4435 26.9168 16.0938 26.4854 16.0938H3.90723C3.47574 16.0938 3.12598 16.4435 3.12598 16.875C3.12598 17.3065 3.47574 17.6562 3.90723 17.6562Z" fill="black"/>
<path d="M3.90723 20.7812H26.4854C26.9168 20.7812 27.2666 20.4315 27.2666 20C27.2666 19.5685 26.9168 19.2188 26.4854 19.2188H3.90723C3.47574 19.2188 3.12598 19.5685 3.12598 20C3.12598 20.4315 3.47574 20.7812 3.90723 20.7812Z" fill="black"/>
<path d="M3.90723 23.9062H16.876C17.3075 23.9062 17.6572 23.5565 17.6572 23.125C17.6572 22.6935 17.3075 22.3438 16.876 22.3438H3.90723C3.47574 22.3438 3.12598 22.6935 3.12598 23.125C3.12598 23.5565 3.47574 23.9062 3.90723 23.9062Z" fill="black"/>
<path d="M3.90723 27.0312H13.751C14.1825 27.0312 14.5322 26.6815 14.5322 26.25C14.5322 25.8185 14.1825 25.4688 13.751 25.4688H3.90723C3.47574 25.4688 3.12598 25.8185 3.12598 26.25C3.12598 26.6815 3.47574 27.0312 3.90723 27.0312Z" fill="black"/>
<path d="M10.626 33.2812H14.6108C14.9738 35.0621 16.552 36.4062 18.4385 36.4062C20.5924 36.4062 22.3447 34.6539 22.3447 32.5C22.3447 30.3461 20.5924 28.5938 18.4385 28.5938C16.5521 28.5938 14.9738 29.9379 14.6108 31.7188H10.626C10.1945 31.7188 9.84473 32.0685 9.84473 32.5C9.84473 32.9315 10.1945 33.2812 10.626 33.2812ZM18.4385 31.7188H16.2291C16.5516 30.8095 17.42 30.1562 18.4385 30.1562C19.7308 30.1562 20.7822 31.2077 20.7822 32.5C20.7822 33.7923 19.7308 34.8438 18.4385 34.8438C17.42 34.8438 16.5516 34.1905 16.2291 33.2812H18.4385C18.8699 33.2812 19.2197 32.9315 19.2197 32.5C19.2197 32.0685 18.87 31.7188 18.4385 31.7188Z" fill="black"/>
<path d="M26.4854 6.25C26.9168 6.25 27.2666 5.90023 27.2666 5.46875C27.2666 5.03727 26.9168 4.6875 26.4854 4.6875H24.9229C24.4914 4.6875 24.1416 5.03727 24.1416 5.46875C24.1416 5.90023 24.4914 6.25 24.9229 6.25H26.4854Z" fill="black"/>
<path d="M21.7979 6.25C22.2293 6.25 22.5791 5.90023 22.5791 5.46875C22.5791 5.03727 22.2293 4.6875 21.7979 4.6875H20.2354C19.8039 4.6875 19.4541 5.03727 19.4541 5.46875C19.4541 5.90023 19.8039 6.25 20.2354 6.25H21.7979Z" fill="black"/>
<path d="M17.1104 6.25C17.5418 6.25 17.8916 5.90023 17.8916 5.46875C17.8916 5.03727 17.5418 4.6875 17.1104 4.6875H15.5479C15.1164 4.6875 14.7666 5.03727 14.7666 5.46875C14.7666 5.90023 15.1164 6.25 15.5479 6.25H17.1104Z" fill="black"/>
<path d="M15.3135 40C15.7449 40 16.0947 39.6502 16.0947 39.2188C16.0947 38.7873 15.7449 38.4375 15.3135 38.4375C14.882 38.4375 14.5322 38.7873 14.5322 39.2188C14.5322 39.6502 14.882 40 15.3135 40Z" fill="black"/>
<path d="M0.782227 40H11.7979C12.2293 40 12.5791 39.6502 12.5791 39.2188C12.5791 38.7873 12.2293 38.4375 11.7979 38.4375H1.56348V7.8125H7.03223C7.46371 7.8125 7.81348 7.46273 7.81348 7.03125V1.5625H28.8291V23.6447C28.4747 24.064 28.1438 24.4321 27.8575 24.7259L26.2012 23.0696C24.675 21.5424 22.2033 21.5417 20.6766 23.0695L19.5719 24.1741C19.2668 24.4792 19.2668 24.9739 19.5719 25.279L28.829 34.5361V38.4375H18.829C18.3975 38.4375 18.0478 38.7873 18.0478 39.2188C18.0478 39.6502 18.3975 40 18.829 40H29.6103C30.0417 40 30.3915 39.6502 30.3915 39.2188V36.0986L30.6204 36.3274C30.9254 36.6323 31.4202 36.6325 31.7253 36.3274L32.83 35.2227C34.3564 33.6963 34.3567 31.225 32.83 29.6984L31.1739 28.0423C32.6559 26.5983 35.9157 24.1998 37.6284 23.4538C40.0325 22.4073 40.9 19.1387 38.8488 17.0875C36.8131 15.0508 33.5589 15.8784 32.4929 18.2893C32.093 19.1929 31.2646 20.4634 30.3916 21.6539V0.78125C30.3916 0.349766 30.0418 0 29.6104 0H7.03223C6.81918 0 6.61895 0.0898437 6.4798 0.228828L0.229805 6.47883C0.0884766 6.61984 0.000976562 6.81922 0.000976562 7.03125V39.2188C0.000976562 39.6502 0.350742 40 0.782227 40ZM31.725 30.8032C32.6409 31.719 32.6411 33.2019 31.725 34.1179L31.1729 34.6702L21.2293 24.7266L21.7817 24.1741C22.6975 23.2579 24.1799 23.2574 25.0962 24.1743L31.725 30.8032ZM30.2227 24.4143C31.5766 22.7814 33.2455 20.4497 33.9218 18.9214C34.529 17.5482 36.4589 16.9068 37.7439 18.1923C39.0293 19.4777 38.3763 21.4242 37.0047 22.0213C35.0607 22.868 31.6771 25.365 30.069 26.9373L28.9624 25.8307C29.3328 25.4517 29.7655 24.9659 30.2227 24.4143ZM6.25098 2.66734V6.25H2.66832L6.25098 2.66734Z" fill="black"/>
</g>
<defs>
<clipPath id="clip0">
<rect width="40" height="40" fill="white"/>
</clipPath>
</defs>
</svg>
