<svg width="40" height="40" viewBox="0 0 40 40" fill="none" xmlns="http://www.w3.org/2000/svg">
<g clip-path="url(#clip0)">
<path d="M33.3749 13.3111C32.6216 -4.42999 7.40202 -4.43734 6.62551 13.2909C6.62042 16.484 7.75905 19.577 9.83177 22.0004C10.4 22.6642 10.9057 23.3776 11.3418 24.1291C8.75107 25.7423 10.0651 29.5646 13.1324 29.3032C13.3203 30.4508 13.2626 32.189 13.2699 33.3632C13.2699 35.308 14.6959 36.9254 16.5571 37.2263C17.4065 40.9258 22.5955 40.9232 23.4435 37.2263C25.3047 36.9254 26.7307 35.308 26.7307 33.3632C26.738 32.1846 26.6792 30.4547 26.8701 29.3032C29.9313 29.5629 31.2453 25.7532 28.6694 24.1353C29.1138 23.3682 29.6292 22.6369 30.2079 21.9536C32.2502 19.5449 33.3749 16.4755 33.3749 13.3111ZM20.0002 38.4492C19.2006 38.4492 18.512 37.9663 18.2096 37.2771H21.7907C21.4884 37.9663 20.7998 38.4492 20.0002 38.4492ZM22.8167 35.7116H17.1838C15.8619 35.714 14.7958 34.6099 14.8355 33.2902H25.165C25.2047 34.6099 24.1386 35.7139 22.8167 35.7116ZM27.2617 27.7376C26.8067 27.7381 25.8602 27.7372 25.4115 27.7376C24.4447 27.766 24.3475 29.1225 25.2925 29.2931C25.1854 30.0938 25.156 30.9167 25.165 31.7245H14.8355C14.8443 30.9199 14.8157 30.1029 14.7108 29.3031H18.3665C18.7988 29.3031 19.1493 28.9526 19.1493 28.5203C19.1493 28.088 18.7988 27.7375 18.3665 27.7375H12.7387C12.0712 27.7375 11.528 27.1944 11.528 26.5268C11.528 25.8592 12.0711 25.3161 12.7387 25.3161C16.9664 25.3165 23.0345 25.3158 27.2616 25.3161C28.8634 25.3806 28.8716 27.6696 27.2617 27.7376ZM21.0272 17.4341C20.4048 17.1202 19.5901 17.1231 18.9738 17.4349L16.0344 13.3711H17.6605C17.9278 13.3711 18.1767 13.2347 18.3205 13.0093L18.919 12.071L20.2355 15.0768C20.4734 15.6453 21.2939 15.708 21.6148 15.18L22.7544 13.3711H23.9659L21.0272 17.4341ZM19.2174 19.5466C19.2145 18.8184 20.1468 18.485 20.6051 19.0501C20.6056 19.0506 20.606 19.0512 20.6064 19.0517C20.7208 19.1912 20.7829 19.3642 20.7829 19.5467V23.7507H19.2174V19.5466ZM27.0907 23.7507H22.3486V19.5466C22.3486 19.2043 22.2752 18.8734 22.137 18.571L25.8983 13.3711H27.5758C28.6142 13.3298 28.6139 11.8466 27.5758 11.8055H27.0307L27.7054 10.8727C28.2805 10.0074 27.0787 9.13818 26.4369 9.95517L25.0985 11.8055H22.3225C22.0536 11.8055 21.8035 11.9435 21.6602 12.1711L21.0774 13.0963L19.7649 10.0997C19.5277 9.53278 18.7097 9.46844 18.388 9.99282L17.2316 11.8056H14.902L13.5636 9.95525C12.9217 9.13818 11.72 10.0075 12.2951 10.8728L12.9698 11.8056H12.4247C11.3863 11.8468 11.3866 13.33 12.4247 13.3711H14.1022L17.8644 18.5723C17.7284 18.8693 17.6519 19.1991 17.6519 19.5467V23.7507H12.9239C12.3912 22.7667 11.7529 21.8373 11.0213 20.9827C4.49673 13.4116 9.99491 1.46803 20.0003 1.50216C29.9822 1.46818 35.4878 13.3611 29.0133 20.9417C28.2749 21.8137 27.6296 22.7568 27.0907 23.7507Z" fill="black"/>
<path d="M22.6136 28.8189C22.78 28.4198 22.5915 27.9614 22.1924 27.795C21.7934 27.6285 21.335 27.8171 21.1686 28.2161C21.0021 28.6152 21.1907 29.0736 21.5897 29.24C21.9887 29.4064 22.4471 29.2179 22.6136 28.8189Z" fill="black"/>
</g>
<defs>
<clipPath id="clip0">
<rect width="40" height="40" fill="white"/>
</clipPath>
</defs>
</svg>
