<svg width="25" height="38" fill="none" xmlns="http://www.w3.org/2000/svg"><path d="M22.725 10.072V7.42h.391a1.76 1.76 0 001.765-1.734V1.936A1.762 1.762 0 0023.116.2H2.083A1.762 1.762 0 00.318 1.936v3.75a1.76 1.76 0 001.765 1.733h.392v2.653A4.117 4.117 0 004.03 13.3l7.053 5.639-6.915 5.363a4.106 4.106 0 00-1.6 3.265v2.914h-.485a1.76 1.76 0 00-1.765 1.734v3.749c.014.964.8 1.737 1.765 1.736h21.033a1.762 1.762 0 001.765-1.736v-3.75a1.76 1.76 0 00-1.765-1.733h-.298v-2.895a4.16 4.16 0 00-1.637-3.29l-7.054-5.365L21.17 13.3a4.115 4.115 0 001.554-3.227zM2.193 2.075h20.813v3.469H2.193V2.075zm20.813 33.75H2.193v-3.469h1.151c.054 0 .109.015.165.015.056 0 .111-.015.165-.015h18.03c.053 0 .108.015.165.015.056 0 .11-.015.165-.015h.972v3.469zm-2.063-8.24v2.896h-16.5v-2.914a2.244 2.244 0 01.876-1.784l7.285-5.65 7.442 5.656c.561.428.893 1.091.897 1.797zm-.945-15.75L12.6 17.75l-7.399-5.915a2.249 2.249 0 01-.852-1.763V7.42h16.5v2.653a2.25 2.25 0 01-.852 1.763z" fill="#E4E4E4"/></svg>