<svg width="30" height="30" fill="none" xmlns="http://www.w3.org/2000/svg"><path d="M14.941 0C6.683 0 0 6.683 0 14.941 0 23.138 6.623 30 14.941 30 23.182 30 30 23.208 30 14.941 30 6.613 23.13 0 14.941 0zm0 28.254c-7.269 0-13.195-5.979-13.195-13.313 0-7.269 5.926-13.195 13.195-13.195 7.335 0 13.313 5.926 13.313 13.195 0 7.335-5.979 13.313-13.313 13.313z" fill="#118BDD"/><path d="M14.941 5.273c-5.33 0-9.668 4.337-9.668 9.668 0 5.351 4.329 9.786 9.668 9.786 2.161 0 4.347-.727 5.997-1.993a.879.879 0 10-1.07-1.394c-1.35 1.035-3.145 1.64-4.927 1.64-4.361 0-7.91-3.612-7.91-8.039 0-4.361 3.549-7.921 7.91-7.921 4.427 0 8.028 3.56 8.028 7.921v.88a1.76 1.76 0 01-1.758 1.757 1.76 1.76 0 01-1.758-1.758v-4.394a.879.879 0 00-1.758 0v.056a4.529 4.529 0 00-2.754-.935 4.4 4.4 0 00-4.394 4.394 4.4 4.4 0 004.394 4.395 4.55 4.55 0 003.383-1.512 3.514 3.514 0 006.403-2.004v-.879c0-5.347-4.441-9.668-9.786-9.668zm0 12.317a2.65 2.65 0 01-2.636-2.649 2.65 2.65 0 012.636-2.648c1.493 0 2.754 1.22 2.754 2.648 0 1.43-1.26 2.649-2.754 2.649z" fill="#118BDD"/></svg>