<svg width="30" height="30" fill="none" xmlns="http://www.w3.org/2000/svg"><g clip-path="url(#clip0)"><path d="M29.23 22.127l-3.73-3.73a2.64 2.64 0 00-3.73 0l-1.694 1.696a2 2 0 01-2.826 0l-7.347-7.354a1.997 1.997 0 010-2.825l1.695-1.695a2.636 2.636 0 00-.001-3.73L7.868.77A2.64 2.64 0 004.142.77l-1.36 1.347c-3.707 3.708-3.707 9.74 0 13.448l11.643 11.648a9.504 9.504 0 0013.448 0l1.357-1.356a2.64 2.64 0 000-3.729zM5.382 2.015a.88.88 0 011.244 0l3.729 3.717c.343.344.343.9 0 1.243l-.622.622-4.97-4.97.62-.612zM15.668 25.97L4.026 14.32a7.728 7.728 0 01-.485-10.43l4.955 4.955a3.752 3.752 0 00.163 5.136l7.348 7.354a3.752 3.752 0 005.136.164l4.955 4.954a7.713 7.713 0 01-10.43-.484zm12.319-1.357l-.622.622-4.973-4.973.622-.621a.88.88 0 011.243 0l3.73 3.73a.88.88 0 010 1.242z" fill="#118BDD"/></g><defs><clipPath id="clip0"><path fill="#fff" d="M0 0h30v30H0z"/></clipPath></defs></svg>